GIL11_free1_ik
nRows=3
nColumns=375

# SIMM Motion File Header:
name GIL11_free1_ik
datacolumns 375
datarows 3
otherdata 1
range 0.85000000 0.86667000
endheader
time	pelvis_tx	pelvis_ty	pelvis_tz	pelvis_tilt	pelvis_list	pelvis_rotation	hip_flexion_r	hip_adduction_r	hip_rotation_r	knee_angle_r	ankle_angle_r	hip_flexion_l	hip_adduction_l	hip_rotation_l	knee_angle_l	ankle_angle_l	lumbar_extension	lumbar_bending	lumbar_rotation	subtalar_angle_r	mtp_angle_r	subtalar_angle_l	mtp_angle_l	asis_r_px	asis_r_py	asis_r_pz	asis_l_px	asis_l_py	asis_l_pz	midasis_px	midasis_py	midasis_pz	psis_r_px	psis_r_py	psis_r_pz	psis_l_px	psis_l_py	psis_l_pz	hip_r_px	hip_r_py	hip_r_pz	hip_l_px	hip_l_py	hip_l_pz	midhip_px	midhip_py	midhip_pz	epicondLat_r_px	epicondLat_r_py	epicondLat_r_pz	epicondMed_r_px	epicondMed_r_py	epicondMed_r_pz	thighwand_r_px	thighwand_r_py	thighwand_r_pz	upperleg1_r_px	upperleg1_r_py	upperleg1_r_pz	upperleg2_r_px	upperleg2_r_py	upperleg2_r_pz	malleolusLat_r_px	malleolusLat_r_py	malleolusLat_r_pz	malleolusMedv_r_px	malleolusMedv_r_py	malleolusMedv_r_pz	shankwand_r_px	shankwand_r_py	shankwand_r_pz	lowerleg1_r_px	lowerleg1_r_py	lowerleg1_r_pz	knee_r_px	knee_r_py	knee_r_pz	ankle_r_px	ankle_r_py	ankle_r_pz	toe_r_px	toe_r_py	toe_r_pz	epicondLat_l_px	epicondLat_l_py	epicondLat_l_pz	epicondMed_l_px	epicondMed_l_py	epicondMed_l_pz	thighwand_l_px	thighwand_l_py	thighwand_l_pz	upperleg1_l_px	upperleg1_l_py	upperleg1_l_pz	upperleg2_l_px	upperleg2_l_py	upperleg2_l_pz	malleolusLat_l_px	malleolusLat_l_py	malleolusLat_l_pz	malleolusMedv_l_px	malleolusMedv_l_py	malleolusMedv_l_pz	shankwand_l_px	shankwand_l_py	shankwand_l_pz	lowerleg1_l_px	lowerleg1_l_py	lowerleg1_l_pz	knee_l_px	knee_l_py	knee_l_pz	ankle_l_px	ankle_l_py	ankle_l_pz	toe_l_px	toe_l_py	toe_l_pz	subclavicle_r_px	subclavicle_r_py	subclavicle_r_pz	subclavicle_l_px	subclavicle_l_py	subclavicle_l_pz	neck_px	neck_py	neck_pz	sternalnotch_px	sternalnotch_py	sternalnotch_pz	xyphoidprocess_px	xyphoidprocess_py	xyphoidprocess_pz	midhip_tx	midhip_ty	midhip_tz	hip_r_tx	hip_r_ty	hip_r_tz	hip_l_tx	hip_l_ty	hip_l_tz	knee_r_tx	knee_r_ty	knee_r_tz	knee_l_tx	knee_l_ty	knee_l_tz	ankle_r_tx	ankle_r_ty	ankle_r_tz	ankle_l_tx	ankle_l_ty	ankle_l_tz	midasis_tx	midasis_ty	midasis_tz	asis_r_tx	asis_r_ty	asis_r_tz	asis_l_tx	asis_l_ty	asis_l_tz	psis_r_tx	psis_r_ty	psis_r_tz	psis_l_tx	psis_l_ty	psis_l_tz	epicondLat_r_tx	epicondLat_r_ty	epicondLat_r_tz	epicondLat_l_tx	epicondLat_l_ty	epicondLat_l_tz	epicondMed_r_tx	epicondMed_r_ty	epicondMed_r_tz	epicondMed_l_tx	epicondMed_l_ty	epicondMed_l_tz	malleolusLat_r_tx	malleolusLat_r_ty	malleolusLat_r_tz	malleolusLat_l_tx	malleolusLat_l_ty	malleolusLat_l_tz	malleolusMedv_r_tx	malleolusMedv_r_ty	malleolusMedv_r_tz	malleolusMedv_l_tx	malleolusMedv_l_ty	malleolusMedv_l_tz	neck_tx	neck_ty	neck_tz	subclavicle_r_tx	subclavicle_r_ty	subclavicle_r_tz	subclavicle_l_tx	subclavicle_l_ty	subclavicle_l_tz	sternalnotch_tx	sternalnotch_ty	sternalnotch_tz	xyphoidprocess_tx	xyphoidprocess_ty	xyphoidprocess_tz	thighwand_r_tx	thighwand_r_ty	thighwand_r_tz	thighwand_l_tx	thighwand_l_ty	thighwand_l_tz	upperleg1_r_tx	upperleg1_r_ty	upperleg1_r_tz	upperleg1_l_tx	upperleg1_l_ty	upperleg1_l_tz	upperleg2_r_tx	upperleg2_r_ty	upperleg2_r_tz	upperleg2_l_tx	upperleg2_l_ty	upperleg2_l_tz	shankwand_r_tx	shankwand_r_ty	shankwand_r_tz	shankwand_l_tx	shankwand_l_ty	shankwand_l_tz	lowerleg1_r_tx	lowerleg1_r_ty	lowerleg1_r_tz	lowerleg1_l_tx	lowerleg1_l_ty	lowerleg1_l_tz	toe_r_tx	toe_r_ty	toe_r_tz	toe_l_tx	toe_l_ty	toe_l_tz	ground_force_vx	ground_force_vy	ground_force_vz	ground_force_px	ground_force_py	ground_force_pz	ground_force_vx	ground_force_vy	ground_force_vz	ground_force_px	ground_force_py	ground_force_pz	ground_torque_x	ground_torque_y	ground_torque_z	ground_torque_x	ground_torque_y	ground_torque_z	ground_marker_px	ground_marker_py	ground_marker_pz	ground_marker_px	ground_marker_py	ground_marker_pz	ground_marker_px	ground_marker_py	ground_marker_pz	ground_marker_px	ground_marker_py	ground_marker_pz	ground_marker_px	ground_marker_py	ground_marker_pz	ground_marker_px	ground_marker_py	ground_marker_pz	ground_marker_px	ground_marker_py	ground_marker_pz	ground_marker_px	ground_marker_py	ground_marker_pz	ground_marker_px	ground_marker_py	ground_marker_pz	ground_marker_px	ground_marker_py	ground_marker_pz	ground_marker_px	ground_marker_py	ground_marker_pz	ground_marker_px	ground_marker_py	ground_marker_pz	ground_marker_px	ground_marker_py	ground_marker_pz	ground_marker_px	ground_marker_py	ground_marker_pz	ground_marker_px	ground_marker_py	ground_marker_pz	ground_marker_px	ground_marker_py	ground_marker_pz	ground_marker_px	ground_marker_py	ground_marker_pz	ground_marker_px	ground_marker_py	ground_marker_pz	ground_marker_px	ground_marker_py	ground_marker_pz	ground_marker_px	ground_marker_py	ground_marker_pz	ground_marker_px	ground_marker_py	ground_marker_pz	ground_marker_px	ground_marker_py	ground_marker_pz	ground_marker_px	ground_marker_py	ground_marker_pz	ground_marker_px	ground_marker_py	ground_marker_pz	ground_marker_px	ground_marker_py	ground_marker_pz	ground_marker_px	ground_marker_py	ground_marker_pz	ground_marker_px	ground_marker_py	ground_marker_pz	ground_marker_px	ground_marker_py	ground_marker_pz	ground_marker_px	ground_marker_py	ground_marker_pz	ground_marker_px	ground_marker_py	ground_marker_pz	ground_marker_px	ground_marker_py	ground_marker_pz	ground_marker_px	ground_marker_py	ground_marker_pz	ground_marker_px	ground_marker_py	ground_marker_pz	ground_marker_px	ground_marker_py	ground_marker_pz	ground_marker_px	ground_marker_py	ground_marker_pz	ground_marker_px	ground_marker_py	ground_marker_pz	ground_marker_px	ground_marker_py	ground_marker_pz
      0.85000000	      1.42899869	      0.88153912	     -0.25889038	     -4.98510181	      1.11599131	      5.20189300	      6.12739010	      1.26896366	      4.69064599	     -9.70989968	      7.60780063	     20.53886988	      2.14763780	     20.37615485	    -40.60735405	     -1.04646061	     -4.44605787	     -3.05995727	      4.37975608	      0.00000000	      0.00000000	      0.00000000	      0.00000000	      1.48635236	      0.86431551	     -0.15319065	      1.46396524	      0.87418784	     -0.38715174	      1.44176385	      0.88044846	     -0.26005653	      1.29251430	      0.95286986	     -0.21604764	      1.28390036	      0.95140985	     -0.27005282	      1.36605856	      0.82446163	     -0.17778646	      1.35245662	      0.82863588	     -0.33058210	      1.35925759	      0.82654875	     -0.25418428	      1.40420664	      0.43054209	     -0.14118467	      1.38466031	      0.43542644	     -0.25650682	      1.54535365	      0.57374221	     -0.23355697	      1.48755600	      0.62243715	     -0.16860448	      1.47592200	      0.53518795	     -0.16854727	      1.30168503	      0.06448180	     -0.15530326	      1.32384052	      0.06579988	     -0.22735651	      1.31319643	      0.14071778	     -0.08690438	      1.31499984	      0.15010076	     -0.13016052	      1.36973909	      0.44656641	     -0.19660634	      1.31420788	      0.07777439	     -0.20475006	      1.41509946	      0.02834144	     -0.15320847	      1.50389031	      0.46101954	     -0.39538480	      1.46842456	      0.45918992	     -0.27668222	      1.52085461	      0.60276061	     -0.46560151	      1.43615834	      0.63157231	     -0.42487824	      1.46269764	      0.54849280	     -0.41164049	      1.30167182	      0.12267237	     -0.45870949	      1.30594501	      0.11622801	     -0.38846029	      1.43518328	      0.17943461	     -0.37065942	      1.40005875	      0.19738238	     -0.38577084	      1.45764961	      0.46086007	     -0.33486392	      1.30901690	      0.12596989	     -0.40496721	      1.39075111	      0.04450376	     -0.43289092	      1.46555250	      1.33278217	     -0.22184639	      1.44930006	      1.32711724	     -0.32634046	      1.33178555	      1.37842820	     -0.25265823	      1.45439742	      1.32636575	     -0.27288582	      1.50077548	      1.26147507	     -0.28046430	      1.36530800	      0.82947800	     -0.26507100	      1.36092500	      0.81187500	     -0.18973600	      1.34470700	      0.82072200	     -0.34073800	      1.36974400	      0.43865400	     -0.21247900	      1.45806300	      0.43815200	     -0.37115600	      1.31342500	      0.06539900	     -0.23369500	      1.29970800	      0.12856200	     -0.34550400	      1.44337800	      0.89005300	     -0.26758000	      1.45197700	      0.88317400	     -0.15170000	      1.43477900	      0.89693200	     -0.38345900	      1.25347000	      0.94903100	     -0.22165600	      1.24528700	      0.94546000	     -0.27542200	      1.37884900	      0.43538400	     -0.15529100	      1.47414800	      0.44728900	     -0.42612700	      1.36108100	      0.44709200	     -0.26286300	      1.48622200	      0.45196600	     -0.30680900	      1.29891800	      0.06546900	     -0.19641800	      1.28584400	      0.13256200	     -0.38281000	      1.32880100	      0.07369700	     -0.26492400	      1.31305500	      0.13487100	     -0.32062100	      1.33375200	      1.38920800	     -0.25299800	      1.46497100	      1.33271900	     -0.22199900	      1.45051200	      1.32778400	     -0.32662100	      1.45461400	      1.32668400	     -0.27319100	      1.49599200	      1.25870400	     -0.27954700	      1.52428300	      0.58070900	     -0.23376100	      1.49164500	      0.59748000	     -0.50084900	      1.46742200	      0.62842900	     -0.16718200	      1.41481900	      0.61998700	     -0.44593400	      1.45398300	      0.54125700	     -0.17066400	      1.44965800	      0.53955000	     -0.43811900	      1.30120500	      0.13975200	     -0.12077400	      1.44074700	      0.19616800	     -0.34929700	      1.30677300	      0.15015000	     -0.16278000	      1.40312700	      0.21403400	     -0.35542000	      1.40802800	      0.03785200	     -0.20526600	      1.37864000	      0.06121700	     -0.36737300	     -8.79987874	    475.79483934	    -31.32497627	      1.39055603	      0.00000000	     -0.20535081	      0.00000000	      0.00000000	      0.00000000	      0.92781543	      0.00000000	     -0.35298300	      0.00000000	      2.32733032	      0.00000000	      0.00000000	      0.00000000	      0.00000000	      1.36530828	      0.82947803	     -0.26507127	      1.36092472	      0.81187546	     -0.18973649	      1.34470749	      0.82072216	     -0.34073827	      1.36974382	      0.43865365	     -0.21247880	      1.45806313	      0.43815213	     -0.37115592	      1.31342518	      0.06539869	     -0.23369497	      1.29970813	      0.12856206	     -0.34550381	      1.44337833	      0.89005315	     -0.26757967	      1.45197737	      0.88317448	     -0.15170018	      1.43477929	      0.89693183	     -0.38345915	      1.25347006	      0.94903105	     -0.22165637	      1.24528742	      0.94545954	     -0.27542225	      1.37884915	      0.43538409	     -0.15529136	      1.47414780	      0.44728872	     -0.42612687	      1.36108100	      0.44709215	     -0.26286349	      1.48622191	      0.45196557	     -0.30680925	      1.29891837	      0.06546872	     -0.19641836	      1.28584421	      0.13256229	     -0.38281047	      1.32880127	      0.07369670	     -0.26492444	      1.31305492	      0.13487051	     -0.32062149	      1.33375180	      1.38920772	     -0.25299823	      1.46497107	      1.33271873	     -0.22199921	      1.45051193	      1.32778430	     -0.32662106	      1.45461440	      1.32668376	     -0.27319115	      1.49599218	      1.25870442	     -0.27954692	      1.52428257	      0.58070874	     -0.23376095	      1.49164510	      0.59747964	     -0.50084913	      1.46742249	      0.62842906	     -0.16718210	      1.41481912	      0.61998749	     -0.44593403	      1.45398271	      0.54125732	     -0.17066380	      1.44965792	      0.53955024	     -0.43811864	      1.30120492	      0.13975172	     -0.12077367	      1.44074667	      0.19616847	     -0.34929743	      1.30677330	      0.15015027	     -0.16278033	      1.40312731	      0.21403435	     -0.35542023	      1.40802801	      0.03785225	     -0.20526616	      1.37864029	      0.06121673	     -0.36737299
      0.85833000	      1.43622405	      0.88018000	     -0.25877923	     -5.02704699	      1.32276326	      5.00653489	      5.34068072	      1.17591221	      4.42244820	     -9.25535109	      7.82497850	     21.27300569	      2.47529969	     20.20395457	    -38.85763359	     -0.19942050	     -4.67155039	     -3.21385901	      4.57079953	      0.00000000	      0.00000000	      0.00000000	      0.00000000	      1.49317119	      0.86256159	     -0.15292488	      1.47166060	      0.87322317	     -0.38693356	      1.44899258	      0.87908285	     -0.25990162	      1.29963858	      0.95147977	     -0.21620797	      1.29122400	      0.95020477	     -0.27024925	      1.37293774	      0.82288655	     -0.17809808	      1.35990642	      0.82757542	     -0.33092853	      1.36642208	      0.82523098	     -0.25451331	      1.40504583	      0.42843522	     -0.14142662	      1.38649788	      0.43365925	     -0.25689869	      1.54900093	      0.56960655	     -0.23258024	      1.49140030	      0.61910784	     -0.16806372	      1.47849581	      0.53203751	     -0.16815166	      1.30020455	      0.06333335	     -0.15708710	      1.32297338	      0.06463287	     -0.22894923	      1.31165532	      0.13936469	     -0.08845066	      1.31388564	      0.14881416	     -0.13167241	      1.37118316	      0.44502313	     -0.19709840	      1.31323215	      0.07663106	     -0.20640194	      1.41349536	      0.02678787	     -0.15403583	      1.51607311	      0.46174740	     -0.39460855	      1.48030272	      0.45970076	     -0.27600097	      1.53147127	      0.60355587	     -0.46504974	      1.44631079	      0.63138976	     -0.42461555	      1.47384277	      0.54867142	     -0.41114543	      1.32835280	      0.11578869	     -0.45554089	      1.33249684	      0.11021468	     -0.38520955	      1.45888225	      0.17893816	     -0.36736901	      1.42312457	      0.19525388	     -0.38284142	      1.46938095	      0.46139271	     -0.33426996	      1.33525204	      0.11991481	     -0.40179676	      1.42159941	      0.04288890	     -0.42840663	      1.47451226	      1.33086952	     -0.22148133	      1.45822032	      1.32536891	     -0.32597803	      1.34095343	      1.37715878	     -0.25223637	      1.46332108	      1.32454825	     -0.27252474	      1.50939815	      1.25945070	     -0.28016478	      1.36893100	      0.82438800	     -0.26440200	      1.36943300	      0.81139300	     -0.18994600	      1.35366100	      0.82063100	     -0.34097100	      1.37240200	      0.43861600	     -0.21292000	      1.47145500	      0.43928700	     -0.36951500	      1.31330000	      0.06572600	     -0.23407600	      1.32583300	      0.12245300	     -0.34486600	      1.45223100	      0.88962900	     -0.26736300	      1.46048900	      0.88245500	     -0.15146500	      1.44397300	      0.89680300	     -0.38326100	      1.26219900	      0.94891000	     -0.22197800	      1.25413400	      0.94532500	     -0.27583000	      1.38106100	      0.43515700	     -0.15567400	      1.48752900	      0.44836800	     -0.42449900	      1.36370700	      0.44715800	     -0.26157700	      1.49886800	      0.45360300	     -0.30531900	      1.29876900	      0.06591500	     -0.19680900	      1.31164800	      0.12607600	     -0.38209100	      1.32843200	      0.07354200	     -0.26554800	      1.33946700	      0.12949700	     -0.32035000	      1.34312700	      1.38884400	     -0.25262600	      1.47433200	      1.33223900	     -0.22190600	      1.45988000	      1.32738100	     -0.32639400	      1.46384300	      1.32627900	     -0.27286400	      1.50532000	      1.25824700	     -0.27943300	      1.52981100	      0.57831300	     -0.23309800	      1.50357600	      0.59802900	     -0.49992700	      1.47387000	      0.62675500	     -0.16696400	      1.42647100	      0.61998600	     -0.44543700	      1.45854200	      0.53989500	     -0.16988800	      1.46177700	      0.54051900	     -0.43719100	      1.30149600	      0.13990200	     -0.12112600	      1.46390100	      0.19606300	     -0.34889500	      1.30710300	      0.15026900	     -0.16369500	      1.42546500	      0.21136500	     -0.35531000	      1.40799900	      0.03777200	     -0.20529300	      1.40802300	      0.05999700	     -0.36765800	     -5.75043487	    483.11212053	    -31.70566785	      1.39257813	      0.00000000	     -0.20520425	      0.00000000	      0.00000000	      0.00000000	      0.92895947	      0.00000000	     -0.35248920	      0.00000000	      2.38939404	      0.00000000	      0.00000000	      0.00000000	      0.00000000	      1.36893058	      0.82438815	     -0.26440224	      1.36943257	      0.81139266	     -0.18994577	      1.35366094	      0.82063121	     -0.34097129	      1.37240160	      0.43861589	     -0.21291982	      1.47145534	      0.43928695	     -0.36951539	      1.31330013	      0.06572577	     -0.23407613	      1.32583284	      0.12245272	     -0.34486604	      1.45223093	      0.88962901	     -0.26736301	      1.46048880	      0.88245493	     -0.15146494	      1.44397306	      0.89680308	     -0.38326108	      1.26219881	      0.94891024	     -0.22197783	      1.25413382	      0.94532478	     -0.27583036	      1.38106143	      0.43515682	     -0.15567437	      1.48752940	      0.44836774	     -0.42449865	      1.36370718	      0.44715783	     -0.26157731	      1.49886787	      0.45360270	     -0.30531949	      1.29876876	      0.06591455	     -0.19680943	      1.31164849	      0.12607613	     -0.38209060	      1.32843220	      0.07354221	     -0.26554766	      1.33946705	      0.12949748	     -0.32034984	      1.34312713	      1.38884437	     -0.25262567	      1.47433209	      1.33223903	     -0.22190604	      1.45988047	      1.32738078	     -0.32639366	      1.46384299	      1.32627892	     -0.27286392	      1.50532019	      1.25824654	     -0.27943262	      1.52981114	      0.57831335	     -0.23309845	      1.50357628	      0.59802878	     -0.49992687	      1.47386968	      0.62675482	     -0.16696362	      1.42647076	      0.61998552	     -0.44543725	      1.45854247	      0.53989452	     -0.16988797	      1.46177721	      0.54051936	     -0.43719071	      1.30149579	      0.13990194	     -0.12112622	      1.46390140	      0.19606340	     -0.34889451	      1.30710256	      0.15026930	     -0.16369474	      1.42546511	      0.21136510	     -0.35531017	      1.40799904	      0.03777156	     -0.20529261	      1.40802312	      0.05999672	     -0.36765799
      0.86667000	      1.44663145	      0.88031655	     -0.25938191	     -5.16454487	      1.48715645	      4.82126453	      4.51524740	      1.10186264	      4.15676450	     -8.84763634	      8.09317855	     21.95234431	      2.76946899	     19.92712869	    -37.12546898	      0.58640190	     -4.37457131	     -3.30285578	      4.72564585	      0.00000000	      0.00000000	      0.00000000	      0.00000000	      1.50316632	      0.86228515	     -0.15337623	      1.48249616	      0.87360066	     -0.38742994	      1.45940105	      0.87919057	     -0.26046279	      1.31007560	      0.95184582	     -0.21710161	      1.30184590	      0.95073042	     -0.27117488	      1.38292334	      0.82297357	     -0.17906875	      1.37043526	      0.82808701	     -0.33193093	      1.37667930	      0.82553029	     -0.25549984	      1.40805614	      0.42803454	     -0.14220309	      1.39048274	      0.43357208	     -0.25781289	      1.55507726	      0.56674397	     -0.23223575	      1.49783286	      0.61721517	     -0.16815510	      1.48345468	      0.53037621	     -0.16835274	      1.29975207	      0.06421724	     -0.15914243	      1.32310816	      0.06537232	     -0.23081832	      1.31140711	      0.14005246	     -0.09032365	      1.31407771	      0.14952865	     -0.13351457	      1.37483866	      0.44522759	     -0.19811769	      1.31330616	      0.07744104	     -0.20833510	      1.41282657	      0.02699380	     -0.15513709	      1.53020052	      0.46362422	     -0.39450295	      1.49436772	      0.46155326	     -0.27591463	      1.54426752	      0.60538303	     -0.46532149	      1.45881152	      0.63249679	     -0.42502171	      1.48713781	      0.55008750	     -0.41130648	      1.35608616	      0.11114796	     -0.45225192	      1.36019461	      0.10648380	     -0.38185230	      1.48375722	      0.18024419	     -0.36435491	      1.44744886	      0.19499555	     -0.38011276	      1.48318203	      0.46322797	     -0.33425180	      1.36263032	      0.11610739	     -0.39853382	      1.45297738	      0.04340036	     -0.42399048	      1.48407067	      1.33147281	     -0.22137461	      1.46786866	      1.32612802	     -0.32589337	      1.35040877	      1.37745829	     -0.25213752	      1.47293330	      1.32521889	     -0.27243807	      1.51919237	      1.26026134	     -0.28016928	      1.38296600	      0.82910300	     -0.26540300	      1.37793100	      0.81073100	     -0.19015800	      1.36257000	      0.82028100	     -0.34120700	      1.37511200	      0.43854500	     -0.21336100	      1.48467100	      0.44024100	     -0.36784400	      1.31305500	      0.06608700	     -0.23457000	      1.35223100	      0.11653300	     -0.34438600	      1.46105800	      0.88897900	     -0.26721000	      1.46900600	      0.88156800	     -0.15122800	      1.45311100	      0.89639000	     -0.38319200	      1.27086900	      0.94859600	     -0.22226600	      1.26285800	      0.94501600	     -0.27626500	      1.38334200	      0.43491100	     -0.15606300	      1.50063100	      0.44922600	     -0.42287600	      1.36774500	      0.44748400	     -0.26238200	      1.51126400	      0.45513600	     -0.30410900	      1.29853600	      0.06638400	     -0.19729900	      1.33777700	      0.11975400	     -0.38154400	      1.32736600	      0.07417600	     -0.26638800	      1.36567500	      0.12415500	     -0.32019700	      1.35243900	      1.38858800	     -0.25250800	      1.48385200	      1.33147600	     -0.22130100	      1.46905800	      1.32699600	     -0.32619000	      1.47315000	      1.32575400	     -0.27257500	      1.51444800	      1.25758100	     -0.27936900	      1.53539800	      0.57597400	     -0.23248600	      1.51506600	      0.59826400	     -0.49904600	      1.47949700	      0.62553200	     -0.16658400	      1.43790000	      0.62035900	     -0.44530300	      1.46303200	      0.53876500	     -0.16977900	      1.47392400	      0.54093700	     -0.43651600	      1.30180800	      0.14005700	     -0.12155300	      1.48709000	      0.19615200	     -0.34848000	      1.30705400	      0.15042900	     -0.16413200	      1.44772700	      0.20996700	     -0.35481100	      1.40801900	      0.03771100	     -0.20534300	      1.43745800	      0.05899900	     -0.36828800	     -2.59209513	    490.91929007	    -32.31217705	      1.39457202	      0.00000000	     -0.20507091	      0.00000000	      0.00000000	      0.00000000	      0.93025177	      0.00000000	     -0.35203113	      0.00000000	      2.43456055	      0.00000000	      0.00000000	      0.00000000	      0.00000000	      1.38296580	      0.82910264	     -0.26540348	      1.37793052	      0.81073117	     -0.19015837	      1.36257041	      0.82028067	     -0.34120697	      1.37511182	      0.43854508	     -0.21336123	      1.48467088	      0.44024053	     -0.36784354	      1.31305468	      0.06608696	     -0.23456997	      1.35223055	      0.11653309	     -0.34438559	      1.46105838	      0.88897902	     -0.26720995	      1.46900558	      0.88156778	     -0.15122777	      1.45311129	      0.89639026	     -0.38319212	      1.27086854	      0.94859636	     -0.22226611	      1.26285756	      0.94501567	     -0.27626488	      1.38334155	      0.43491068	     -0.15606323	      1.50063133	      0.44922552	     -0.42287561	      1.36774504	      0.44748360	     -0.26238173	      1.51126444	      0.45513570	     -0.30410895	      1.29853594	      0.06638370	     -0.19729911	      1.33777678	      0.11975397	     -0.38154352	      1.32736576	      0.07417563	     -0.26638812	      1.36567497	      0.12415477	     -0.32019675	      1.35243869	      1.38858819	     -0.25250813	      1.48385167	      1.33147597	     -0.22130106	      1.46905828	      1.32699585	     -0.32619029	      1.47315013	      1.32575440	     -0.27257535	      1.51444840	      1.25758135	     -0.27936921	      1.53539824	      0.57597375	     -0.23248589	      1.51506615	      0.59826362	     -0.49904600	      1.47949672	      0.62553155	     -0.16658373	      1.43790042	      0.62035948	     -0.44530270	      1.46303201	      0.53876549	     -0.16977878	      1.47392416	      0.54093671	     -0.43651596	      1.30180776	      0.14005674	     -0.12155263	      1.48708975	      0.19615249	     -0.34847978	      1.30705404	      0.15042903	     -0.16413248	      1.44772720	      0.20996732	     -0.35481128	      1.40801895	      0.03771086	     -0.20534332	      1.43745780	      0.05899933	     -0.36828801
